<svg id="svg" version="1.1" xmlns="http://www.w3.org/2000/svg" xmlns:xlink="http://www.w3.org/1999/xlink" width="400" height="400" viewBox="0, 0, 400,400"><g id="svgg"><path id="path0" d="M169.826 35.958 C 169.573 36.367,170.501 36.800,171.633 36.800 C 172.055 36.800,172.400 36.530,172.400 36.200 C 172.400 35.538,170.213 35.333,169.826 35.958 M173.041 37.037 C 172.878 37.462,173.064 37.744,173.598 37.884 C 174.039 37.999,174.400 38.252,174.400 38.447 C 174.400 38.641,174.670 38.800,175.000 38.800 C 175.330 38.800,175.600 38.614,175.600 38.387 C 175.600 38.161,175.330 37.871,175.000 37.745 C 174.670 37.618,174.400 37.264,174.400 36.957 C 174.400 36.191,173.342 36.253,173.041 37.037 M179.903 43.030 C 179.553 43.380,180.964 45.446,182.547 46.900 C 183.849 48.097,184.407 48.279,184.387 47.500 C 184.369 46.800,183.403 45.600,182.856 45.600 C 182.605 45.600,182.400 45.407,182.400 45.171 C 182.400 44.633,181.389 43.600,180.862 43.600 C 180.645 43.600,180.403 43.409,180.325 43.175 C 180.247 42.941,180.057 42.876,179.903 43.030 M189.200 54.003 C 189.200 54.630,191.269 56.800,191.866 56.800 C 192.160 56.800,192.400 56.530,192.400 56.200 C 192.400 55.870,192.220 55.600,192.000 55.600 C 191.780 55.600,191.600 55.330,191.600 55.000 C 191.600 54.670,191.330 54.400,191.000 54.400 C 190.670 54.400,190.400 54.220,190.400 54.000 C 190.400 53.780,190.130 53.600,189.800 53.600 C 189.470 53.600,189.200 53.782,189.200 54.003 M167.600 62.200 C 167.600 63.468,167.764 64.000,168.155 64.000 C 168.838 64.000,169.264 61.596,168.704 60.900 C 167.957 59.971,167.600 60.392,167.600 62.200 M196.400 62.200 C 196.400 62.530,196.580 62.800,196.800 62.800 C 197.020 62.800,197.200 63.009,197.200 63.264 C 197.200 63.770,199.541 66.000,200.072 66.000 C 200.252 66.000,200.394 65.775,200.387 65.500 C 200.369 64.800,199.403 63.600,198.856 63.600 C 198.605 63.600,198.400 63.407,198.400 63.171 C 198.400 62.618,197.382 61.600,196.829 61.600 C 196.593 61.600,196.400 61.870,196.400 62.200 M166.675 68.658 C 166.234 69.099,166.358 71.127,166.845 71.428 C 167.449 71.801,168.030 70.815,167.904 69.631 C 167.799 68.648,167.177 68.156,166.675 68.658 M205.200 71.995 C 205.200 72.670,207.433 75.200,208.029 75.200 C 208.789 75.200,208.362 73.901,207.231 72.769 C 206.052 71.590,205.200 71.266,205.200 71.995 M165.600 75.800 C 165.600 76.796,165.761 77.213,166.100 77.100 C 166.375 77.008,166.600 76.423,166.600 75.800 C 166.600 75.177,166.375 74.592,166.100 74.500 C 165.761 74.387,165.600 74.804,165.600 75.800 M164.557 80.167 C 164.226 81.029,164.687 82.104,165.300 81.900 C 165.575 81.808,165.800 81.313,165.800 80.800 C 165.800 79.704,164.909 79.250,164.557 80.167 M212.400 80.200 C 212.400 80.530,212.580 80.800,212.800 80.800 C 213.020 80.800,213.200 80.993,213.200 81.229 C 213.200 81.866,214.253 82.800,214.971 82.800 C 215.317 82.800,215.600 82.530,215.600 82.200 C 215.600 81.870,215.330 81.600,215.000 81.600 C 214.670 81.600,214.400 81.407,214.400 81.171 C 214.400 80.618,213.382 79.600,212.829 79.600 C 212.593 79.600,212.400 79.870,212.400 80.200 M163.760 84.960 C 163.614 85.342,163.692 85.852,163.934 86.094 C 164.254 86.414,164.446 86.345,164.640 85.840 C 164.786 85.458,164.708 84.948,164.466 84.706 C 164.146 84.386,163.954 84.455,163.760 84.960 M218.400 86.945 C 218.400 87.709,220.375 89.603,221.155 89.587 C 221.722 89.576,221.716 89.511,221.100 89.043 C 220.715 88.751,220.400 88.399,220.400 88.260 C 220.400 87.874,219.062 86.400,218.711 86.400 C 218.540 86.400,218.400 86.645,218.400 86.945 M162.534 89.027 C 162.201 89.896,163.047 90.713,163.653 90.107 C 164.165 89.595,163.848 88.400,163.200 88.400 C 162.966 88.400,162.667 88.682,162.534 89.027 M161.856 92.678 C 161.378 93.156,161.598 94.000,162.200 94.000 C 162.530 94.000,162.800 93.741,162.800 93.424 C 162.800 92.755,162.229 92.304,161.856 92.678 M223.765 93.200 C 223.888 93.750,223.992 94.335,223.995 94.500 C 224.005 95.088,225.600 94.790,225.600 94.200 C 225.600 93.870,225.395 93.600,225.144 93.600 C 224.893 93.600,224.430 93.285,224.114 92.900 C 223.588 92.258,223.559 92.282,223.765 93.200 M160.468 96.464 C 160.540 96.979,160.870 97.400,161.200 97.400 C 162.067 97.400,161.948 95.839,161.068 95.670 C 160.499 95.561,160.365 95.739,160.468 96.464 M228.400 99.171 C 228.400 99.974,229.384 101.200,230.029 101.200 C 230.717 101.200,230.407 99.900,229.539 99.147 C 228.468 98.218,228.400 98.219,228.400 99.171 M159.600 100.200 C 159.600 100.530,159.870 100.800,160.200 100.800 C 160.530 100.800,160.800 100.530,160.800 100.200 C 160.800 99.870,160.530 99.600,160.200 99.600 C 159.870 99.600,159.600 99.870,159.600 100.200 M158.534 103.027 C 158.201 103.896,159.047 104.713,159.653 104.107 C 160.165 103.595,159.848 102.400,159.200 102.400 C 158.966 102.400,158.667 102.682,158.534 103.027 M232.400 104.026 C 232.400 104.840,233.231 106.000,233.814 106.000 C 234.563 106.000,234.572 104.914,233.829 104.171 C 233.155 103.498,232.400 103.422,232.400 104.026 M157.600 106.400 C 157.600 106.840,157.840 107.200,158.133 107.200 C 158.886 107.200,159.181 106.815,158.930 106.161 C 158.603 105.310,157.600 105.490,157.600 106.400 M156.534 109.027 C 156.201 109.896,157.047 110.713,157.653 110.107 C 158.165 109.595,157.848 108.400,157.200 108.400 C 156.966 108.400,156.667 108.682,156.534 109.027 M236.278 108.941 C 236.164 109.239,236.417 109.779,236.840 110.141 C 238.315 111.405,238.982 110.688,237.711 109.205 C 236.903 108.261,236.563 108.199,236.278 108.941 M155.600 112.400 C 155.600 112.840,155.840 113.200,156.133 113.200 C 156.886 113.200,157.181 112.815,156.930 112.161 C 156.603 111.310,155.600 111.490,155.600 112.400 M239.477 112.944 C 239.338 113.305,239.378 113.600,239.566 113.600 C 239.753 113.600,240.001 113.960,240.116 114.400 C 240.231 114.840,240.612 115.200,240.963 115.200 C 241.333 115.200,241.600 114.865,241.600 114.400 C 241.600 113.960,241.395 113.600,241.144 113.600 C 240.893 113.600,240.472 113.305,240.208 112.944 C 239.764 112.336,239.710 112.336,239.477 112.944 M154.675 114.658 C 154.109 115.225,154.429 116.000,155.229 116.000 C 155.789 116.000,156.017 115.783,155.929 115.333 C 155.787 114.597,155.104 114.230,154.675 114.658 M153.600 118.200 C 153.600 118.530,153.870 118.800,154.200 118.800 C 154.530 118.800,154.800 118.530,154.800 118.200 C 154.800 117.870,154.530 117.600,154.200 117.600 C 153.870 117.600,153.600 117.870,153.600 118.200 M243.200 118.200 C 243.200 118.530,243.470 118.800,243.800 118.800 C 244.130 118.800,244.400 118.530,244.400 118.200 C 244.400 117.870,244.130 117.600,243.800 117.600 C 243.470 117.600,243.200 117.870,243.200 118.200 M152.639 120.738 C 152.500 120.961,152.582 121.265,152.820 121.412 C 153.435 121.793,153.832 121.272,153.318 120.758 C 153.031 120.471,152.807 120.464,152.639 120.738 M246.076 122.300 C 246.150 122.685,246.476 123.000,246.800 123.000 C 247.124 123.000,247.450 122.685,247.524 122.300 C 247.618 121.809,247.402 121.600,246.800 121.600 C 246.198 121.600,245.982 121.809,246.076 122.300 M201.745 122.600 C 201.618 122.930,201.264 123.200,200.957 123.200 C 200.651 123.200,200.400 123.470,200.400 123.800 C 200.400 124.130,200.670 124.400,201.000 124.400 C 201.330 124.400,201.600 124.220,201.600 124.000 C 201.600 123.206,203.329 123.623,204.276 124.645 C 204.809 125.219,205.354 125.580,205.487 125.446 C 205.836 125.097,204.901 123.200,204.380 123.200 C 204.140 123.200,203.673 122.930,203.343 122.600 C 203.013 122.270,202.570 122.000,202.359 122.000 C 202.148 122.000,201.871 122.270,201.745 122.600 M151.600 123.367 C 151.600 124.039,151.819 124.400,152.228 124.400 C 152.645 124.400,152.813 124.108,152.728 123.531 C 152.539 122.251,151.600 122.114,151.600 123.367 M199.200 125.600 C 199.200 126.044,199.467 126.400,199.800 126.400 C 200.133 126.400,200.400 126.044,200.400 125.600 C 200.400 125.156,200.133 124.800,199.800 124.800 C 199.467 124.800,199.200 125.156,199.200 125.600 M248.627 125.700 C 249.072 127.125,250.400 127.758,250.400 126.544 C 250.400 125.907,249.334 124.838,248.673 124.813 C 248.493 124.806,248.472 125.205,248.627 125.700 M150.675 125.858 C 150.153 126.380,150.402 126.800,151.233 126.800 C 151.699 126.800,151.997 126.590,151.908 126.325 C 151.713 125.740,151.046 125.488,150.675 125.858 M205.600 126.833 C 205.600 127.808,206.535 127.670,206.729 126.667 C 206.806 126.272,206.602 126.000,206.229 126.000 C 205.858 126.000,205.600 126.342,205.600 126.833 M149.600 128.400 C 149.600 128.844,149.867 129.200,150.200 129.200 C 150.533 129.200,150.800 128.844,150.800 128.400 C 150.800 127.956,150.533 127.600,150.200 127.600 C 149.867 127.600,149.600 127.956,149.600 128.400 M251.467 128.667 C 250.979 129.154,251.191 130.000,251.800 130.000 C 252.133 130.000,252.400 129.644,252.400 129.200 C 252.400 128.403,251.974 128.160,251.467 128.667 M206.400 129.571 C 206.400 130.143,206.657 130.400,207.229 130.400 C 207.802 130.400,208.017 130.185,207.925 129.705 C 207.724 128.662,206.400 128.546,206.400 129.571 M198.188 130.922 C 197.817 132.900,198.091 134.171,198.921 134.329 C 199.559 134.451,199.628 134.201,199.521 132.165 C 199.383 129.539,198.587 128.797,198.188 130.922 M148.538 131.017 C 148.236 131.804,148.593 132.165,149.376 131.865 C 149.728 131.730,149.886 131.369,149.750 131.015 C 149.447 130.225,148.842 130.226,148.538 131.017 M147.856 132.678 C 147.378 133.156,147.598 134.000,148.200 134.000 C 148.530 134.000,148.800 133.741,148.800 133.424 C 148.800 132.755,148.229 132.304,147.856 132.678 M207.856 132.678 C 207.361 133.172,207.607 134.400,208.200 134.400 C 208.530 134.400,208.800 134.051,208.800 133.624 C 208.800 132.789,208.273 132.261,207.856 132.678 M254.000 133.200 C 254.000 133.733,254.267 134.000,254.800 134.000 C 255.333 134.000,255.600 133.733,255.600 133.200 C 255.600 132.667,255.333 132.400,254.800 132.400 C 254.267 132.400,254.000 132.667,254.000 133.200 M256.267 135.867 C 255.760 136.374,256.003 136.800,256.800 136.800 C 257.244 136.800,257.600 136.533,257.600 136.200 C 257.600 135.591,256.754 135.379,256.267 135.867 M145.600 138.433 C 145.600 139.408,146.535 139.270,146.729 138.267 C 146.806 137.872,146.602 137.600,146.229 137.600 C 145.858 137.600,145.600 137.942,145.600 138.433 M208.667 138.667 C 208.013 139.320,208.385 142.462,209.100 142.325 C 209.872 142.178,210.198 140.844,209.826 139.359 C 209.586 138.404,209.175 138.159,208.667 138.667 M258.250 139.015 C 258.114 139.369,258.272 139.730,258.624 139.865 C 259.407 140.165,259.764 139.804,259.462 139.017 C 259.158 138.226,258.553 138.225,258.250 139.015 M144.400 140.400 C 144.400 141.002,144.609 141.218,145.100 141.124 C 145.485 141.050,145.800 140.724,145.800 140.400 C 145.800 140.076,145.485 139.750,145.100 139.676 C 144.609 139.582,144.400 139.798,144.400 140.400 M260.400 142.200 C 260.400 142.567,260.594 142.802,260.830 142.723 C 261.067 142.644,261.260 142.409,261.260 142.200 C 261.260 141.991,261.067 141.756,260.830 141.677 C 260.594 141.598,260.400 141.833,260.400 142.200 M197.124 143.400 C 196.970 144.717,197.354 145.600,198.080 145.600 C 198.256 145.600,198.400 144.790,198.400 143.800 C 198.400 141.564,197.376 141.243,197.124 143.400 M142.578 144.835 C 142.235 145.390,142.996 146.173,143.548 145.832 C 144.007 145.548,143.713 144.400,143.181 144.400 C 142.997 144.400,142.726 144.596,142.578 144.835 M262.400 145.213 C 262.400 145.646,262.670 146.000,263.000 146.000 C 263.330 146.000,263.600 145.749,263.600 145.443 C 263.600 145.136,263.330 144.782,263.000 144.655 C 262.592 144.499,262.400 144.677,262.400 145.213 M141.600 147.167 C 141.600 147.658,141.858 148.000,142.229 148.000 C 142.602 148.000,142.806 147.728,142.729 147.333 C 142.535 146.330,141.600 146.192,141.600 147.167 M264.255 148.200 C 264.099 148.608,264.277 148.800,264.813 148.800 C 265.246 148.800,265.600 148.530,265.600 148.200 C 265.600 147.870,265.349 147.600,265.043 147.600 C 264.736 147.600,264.382 147.870,264.255 148.200 M196.207 151.178 C 195.856 152.284,196.315 153.600,197.051 153.600 C 197.495 153.600,197.616 153.222,197.524 152.131 C 197.385 150.484,196.606 149.921,196.207 151.178 M266.200 150.800 C 265.865 151.342,266.317 152.000,267.024 152.000 C 267.341 152.000,267.600 151.640,267.600 151.200 C 267.600 150.372,266.635 150.096,266.200 150.800 M139.856 151.878 C 139.405 152.328,139.581 152.800,140.200 152.800 C 140.530 152.800,140.800 152.631,140.800 152.424 C 140.800 151.919,140.175 151.558,139.856 151.878 M138.675 153.858 C 138.153 154.380,138.402 154.800,139.233 154.800 C 139.699 154.800,139.997 154.590,139.908 154.325 C 139.713 153.740,139.046 153.488,138.675 153.858 M268.267 153.867 C 267.760 154.374,268.003 154.800,268.800 154.800 C 269.244 154.800,269.600 154.533,269.600 154.200 C 269.600 153.591,268.754 153.379,268.267 153.867 M137.600 156.400 C 137.600 156.840,137.840 157.200,138.133 157.200 C 138.886 157.200,139.181 156.815,138.930 156.161 C 138.603 155.310,137.600 155.490,137.600 156.400 M269.467 155.867 C 269.006 156.327,269.175 156.800,269.800 156.800 C 270.130 156.800,270.400 156.530,270.400 156.200 C 270.400 155.575,269.927 155.406,269.467 155.867 M195.273 158.269 C 195.458 159.826,196.400 159.964,196.400 158.433 C 196.400 157.580,196.207 157.200,195.773 157.200 C 195.329 157.200,195.184 157.511,195.273 158.269 M271.467 158.667 C 270.979 159.154,271.191 160.000,271.800 160.000 C 272.133 160.000,272.400 159.644,272.400 159.200 C 272.400 158.403,271.974 158.160,271.467 158.667 M208.675 160.658 C 208.009 161.324,208.379 164.863,209.100 164.724 C 209.653 164.617,209.800 164.178,209.800 162.628 C 209.800 160.812,209.335 159.998,208.675 160.658 M272.400 161.213 C 272.400 161.646,272.670 162.000,273.000 162.000 C 273.330 162.000,273.600 161.749,273.600 161.443 C 273.600 161.136,273.330 160.782,273.000 160.655 C 272.592 160.499,272.400 160.677,272.400 161.213 M135.677 161.230 C 135.756 161.466,135.991 161.660,136.200 161.660 C 136.409 161.660,136.644 161.466,136.723 161.230 C 136.802 160.994,136.567 160.800,136.200 160.800 C 135.833 160.800,135.598 160.994,135.677 161.230 M134.675 162.658 C 134.109 163.225,134.429 164.000,135.229 164.000 C 135.789 164.000,136.017 163.783,135.929 163.333 C 135.787 162.597,135.104 162.230,134.675 162.658 M194.211 163.982 C 193.825 164.606,194.442 166.400,195.043 166.400 C 195.413 166.400,195.600 165.929,195.600 165.000 C 195.600 163.641,194.789 163.046,194.211 163.982 M274.400 164.200 C 274.400 164.530,274.670 164.800,275.000 164.800 C 275.330 164.800,275.600 164.530,275.600 164.200 C 275.600 163.870,275.330 163.600,275.000 163.600 C 274.670 163.600,274.400 163.870,274.400 164.200 M133.600 165.167 C 133.600 165.658,133.858 166.000,134.229 166.000 C 134.602 166.000,134.806 165.728,134.729 165.333 C 134.535 164.330,133.600 164.192,133.600 165.167 M275.200 166.200 C 275.200 166.530,275.470 166.800,275.800 166.800 C 276.130 166.800,276.400 166.530,276.400 166.200 C 276.400 165.870,276.130 165.600,275.800 165.600 C 275.470 165.600,275.200 165.870,275.200 166.200 M276.400 168.200 C 276.400 168.530,276.670 168.800,277.000 168.800 C 277.330 168.800,277.600 168.530,277.600 168.200 C 277.600 167.870,277.330 167.600,277.000 167.600 C 276.670 167.600,276.400 167.870,276.400 168.200 M193.354 169.377 C 193.035 170.207,193.318 171.306,193.900 171.500 C 194.238 171.613,194.400 171.202,194.400 170.233 C 194.400 168.801,193.772 168.287,193.354 169.377 M131.600 170.200 C 131.600 170.530,131.870 170.800,132.200 170.800 C 132.530 170.800,132.800 170.530,132.800 170.200 C 132.800 169.870,132.530 169.600,132.200 169.600 C 131.870 169.600,131.600 169.870,131.600 170.200 M207.600 171.000 C 207.600 172.579,208.255 172.861,208.760 171.500 C 209.166 170.408,208.910 169.600,208.157 169.600 C 207.787 169.600,207.600 170.070,207.600 171.000 M130.400 172.400 C 130.400 173.002,130.609 173.218,131.100 173.124 C 131.485 173.050,131.800 172.724,131.800 172.400 C 131.800 172.076,131.485 171.750,131.100 171.676 C 130.609 171.582,130.400 171.798,130.400 172.400 M192.201 174.796 C 191.899 175.749,192.233 176.400,193.024 176.400 C 193.397 176.400,193.600 175.978,193.600 175.200 C 193.600 173.817,192.603 173.530,192.201 174.796 M206.470 176.665 C 206.635 178.106,207.800 178.229,207.800 176.805 C 207.800 176.161,207.543 175.762,207.070 175.670 C 206.480 175.557,206.365 175.747,206.470 176.665 M128.639 176.738 C 128.500 176.961,128.582 177.265,128.820 177.412 C 129.435 177.793,129.832 177.272,129.318 176.758 C 129.031 176.471,128.807 176.464,128.639 176.738 M127.856 178.678 C 127.378 179.156,127.598 180.000,128.200 180.000 C 128.530 180.000,128.800 179.741,128.800 179.424 C 128.800 178.755,128.229 178.304,127.856 178.678 M191.402 179.197 C 191.077 179.723,191.538 181.200,192.027 181.200 C 192.512 181.200,192.513 179.317,192.028 179.017 C 191.823 178.891,191.541 178.971,191.402 179.197 M126.675 180.658 C 126.109 181.225,126.429 182.000,127.229 182.000 C 127.789 182.000,128.017 181.783,127.929 181.333 C 127.787 180.597,127.104 180.230,126.675 180.658 M205.600 181.600 C 205.600 182.400,205.800 182.800,206.200 182.800 C 206.600 182.800,206.800 182.400,206.800 181.600 C 206.800 180.800,206.600 180.400,206.200 180.400 C 205.800 180.400,205.600 180.800,205.600 181.600 M283.467 181.867 C 283.006 182.327,283.175 182.800,283.800 182.800 C 284.130 182.800,284.400 182.530,284.400 182.200 C 284.400 181.575,283.927 181.406,283.467 181.867 M190.400 183.800 C 190.400 184.130,190.670 184.400,191.000 184.400 C 191.330 184.400,191.600 184.130,191.600 183.800 C 191.600 183.470,191.330 183.200,191.000 183.200 C 190.670 183.200,190.400 183.470,190.400 183.800 M284.267 183.867 C 283.760 184.374,284.003 184.800,284.800 184.800 C 285.244 184.800,285.600 184.533,285.600 184.200 C 285.600 183.591,284.754 183.379,284.267 183.867 M204.675 184.658 C 204.087 185.247,204.396 186.459,205.100 186.324 C 205.485 186.250,205.800 185.847,205.800 185.428 C 205.800 184.632,205.148 184.186,204.675 184.658 M124.578 186.035 C 124.431 186.274,124.467 186.627,124.658 186.818 C 125.131 187.291,126.172 186.603,125.828 186.045 C 125.478 185.479,124.924 185.475,124.578 186.035 M285.200 186.400 C 285.200 186.844,285.467 187.200,285.800 187.200 C 286.133 187.200,286.400 186.844,286.400 186.400 C 286.400 185.956,286.133 185.600,285.800 185.600 C 285.467 185.600,285.200 185.956,285.200 186.400 M189.200 187.600 C 189.200 188.044,189.467 188.400,189.800 188.400 C 190.133 188.400,190.400 188.044,190.400 187.600 C 190.400 187.156,190.133 186.800,189.800 186.800 C 189.467 186.800,189.200 187.156,189.200 187.600 M203.672 188.500 C 203.742 188.995,203.980 189.400,204.200 189.400 C 204.420 189.400,204.658 188.995,204.728 188.500 C 204.816 187.881,204.651 187.600,204.200 187.600 C 203.749 187.600,203.584 187.881,203.672 188.500 M286.250 189.015 C 286.114 189.369,286.272 189.730,286.624 189.865 C 287.407 190.165,287.764 189.804,287.462 189.017 C 287.158 188.226,286.553 188.225,286.250 189.015 M122.675 190.658 C 122.109 191.225,122.429 192.000,123.229 192.000 C 123.789 192.000,124.017 191.783,123.929 191.333 C 123.787 190.597,123.104 190.230,122.675 190.658 M188.164 191.399 C 187.847 192.664,188.197 193.600,188.987 193.600 C 189.435 193.600,189.600 193.170,189.600 192.000 C 189.600 190.155,188.584 189.729,188.164 191.399 M202.675 190.658 C 202.109 191.225,202.429 192.000,203.229 192.000 C 203.789 192.000,204.017 191.783,203.929 191.333 C 203.787 190.597,203.104 190.230,202.675 190.658 M287.600 191.800 C 287.600 192.350,287.780 192.800,288.000 192.800 C 288.220 192.800,288.400 192.350,288.400 191.800 C 288.400 191.250,288.220 190.800,288.000 190.800 C 287.780 190.800,287.600 191.250,287.600 191.800 M121.600 194.200 C 121.600 194.530,121.870 194.800,122.200 194.800 C 122.530 194.800,122.800 194.530,122.800 194.200 C 122.800 193.870,122.530 193.600,122.200 193.600 C 121.870 193.600,121.600 193.870,121.600 194.200 M288.400 194.600 C 288.400 195.588,288.942 195.941,289.378 195.236 C 289.667 194.768,289.224 193.600,288.757 193.600 C 288.561 193.600,288.400 194.050,288.400 194.600 M188.267 194.667 C 187.633 195.300,188.008 196.800,188.800 196.800 C 189.422 196.800,189.600 196.533,189.600 195.600 C 189.600 194.472,188.930 194.003,188.267 194.667 M200.683 194.650 C 200.371 194.962,200.801 196.000,201.243 196.000 C 201.700 196.000,201.710 194.915,201.256 194.634 C 201.066 194.517,200.809 194.524,200.683 194.650 M120.578 196.835 C 120.235 197.390,120.996 198.173,121.548 197.832 C 122.007 197.548,121.713 196.400,121.181 196.400 C 120.997 196.400,120.726 196.596,120.578 196.835 M289.362 196.955 C 289.101 197.635,289.451 198.400,290.024 198.400 C 290.528 198.400,290.506 196.913,289.997 196.598 C 289.776 196.461,289.490 196.622,289.362 196.955 M199.600 197.200 C 199.600 197.420,199.407 197.600,199.171 197.600 C 198.534 197.600,197.600 198.653,197.600 199.371 C 197.600 199.717,197.842 200.000,198.138 200.000 C 198.778 200.000,200.000 198.733,200.000 198.069 C 200.000 197.811,200.180 197.600,200.400 197.600 C 200.620 197.600,200.800 197.420,200.800 197.200 C 200.800 196.980,200.530 196.800,200.200 196.800 C 199.870 196.800,199.600 196.980,199.600 197.200 M189.200 197.995 C 189.200 198.604,190.515 200.000,191.089 200.000 C 191.862 200.000,191.701 199.065,190.795 198.289 C 189.900 197.522,189.200 197.393,189.200 197.995 M119.600 200.200 C 119.600 200.530,119.870 200.800,120.200 200.800 C 120.530 200.800,120.800 200.530,120.800 200.200 C 120.800 199.870,120.530 199.600,120.200 199.600 C 119.870 199.600,119.600 199.870,119.600 200.200 M290.250 201.015 C 290.114 201.369,290.272 201.730,290.624 201.865 C 291.407 202.165,291.764 201.804,291.462 201.017 C 291.158 200.226,290.553 200.225,290.250 201.015 M118.538 203.017 C 118.236 203.804,118.593 204.165,119.376 203.865 C 119.728 203.730,119.886 203.369,119.750 203.015 C 119.447 202.225,118.842 202.226,118.538 203.017 M291.200 204.600 C 291.200 205.222,291.427 205.600,291.800 205.600 C 292.173 205.600,292.400 205.222,292.400 204.600 C 292.400 203.978,292.173 203.600,291.800 203.600 C 291.427 203.600,291.200 203.978,291.200 204.600 M117.600 206.600 C 117.600 207.638,118.564 208.010,118.898 207.100 C 119.174 206.351,118.807 205.600,118.167 205.600 C 117.829 205.600,117.600 206.004,117.600 206.600 M292.145 208.200 C 291.819 209.049,292.264 210.000,292.987 210.000 C 293.401 210.000,293.600 209.611,293.600 208.800 C 293.600 207.513,292.571 207.089,292.145 208.200 M116.578 210.035 C 116.166 210.702,117.093 211.467,117.645 210.915 C 118.107 210.453,117.818 209.600,117.200 209.600 C 117.006 209.600,116.726 209.796,116.578 210.035 M293.354 212.977 C 293.035 213.807,293.318 214.906,293.900 215.100 C 294.238 215.213,294.400 214.802,294.400 213.833 C 294.400 212.401,293.772 211.887,293.354 212.977 M115.856 213.078 C 115.341 213.593,115.601 215.200,116.200 215.200 C 116.569 215.200,116.800 214.825,116.800 214.224 C 116.800 213.220,116.309 212.624,115.856 213.078 M114.529 218.240 C 114.246 218.978,115.214 219.746,115.750 219.210 C 116.186 218.774,115.786 217.600,115.200 217.600 C 114.966 217.600,114.664 217.888,114.529 218.240 M294.240 219.782 C 293.948 220.948,294.359 224.000,294.808 224.000 C 295.705 224.000,295.907 219.953,295.046 219.238 C 294.604 218.872,294.441 218.982,294.240 219.782 M113.856 221.878 C 113.323 222.410,113.595 224.400,114.200 224.400 C 114.597 224.400,114.800 224.003,114.800 223.224 C 114.800 222.049,114.340 221.393,113.856 221.878 M112.472 228.865 C 112.639 230.612,113.800 230.735,113.800 229.005 C 113.800 228.168,113.582 227.769,113.072 227.671 C 112.467 227.554,112.366 227.755,112.472 228.865 M111.856 234.678 C 111.294 235.239,111.586 238.400,112.200 238.400 C 112.643 238.400,112.800 237.936,112.800 236.624 C 112.800 234.930,112.409 234.124,111.856 234.678 M180.800 235.800 C 180.800 236.133,181.156 236.400,181.600 236.400 C 182.044 236.400,182.400 236.133,182.400 235.800 C 182.400 235.467,182.044 235.200,181.600 235.200 C 181.156 235.200,180.800 235.467,180.800 235.800 M194.680 235.453 C 194.118 236.015,194.424 236.400,195.433 236.400 C 196.082 236.400,196.405 236.214,196.300 235.900 C 196.108 235.322,195.092 235.041,194.680 235.453 M294.171 236.572 C 293.820 237.973,294.281 239.600,295.030 239.600 C 295.512 239.600,295.618 239.198,295.522 237.731 C 295.387 235.664,294.574 234.966,294.171 236.572 M177.200 237.800 C 177.200 238.130,177.470 238.400,177.800 238.400 C 178.130 238.400,178.400 238.130,178.400 237.800 C 178.400 237.470,178.130 237.200,177.800 237.200 C 177.470 237.200,177.200 237.470,177.200 237.800 M198.667 237.467 C 198.206 237.927,198.375 238.400,199.000 238.400 C 199.330 238.400,199.600 238.670,199.600 239.000 C 199.600 239.330,199.870 239.600,200.200 239.600 C 200.936 239.600,200.955 238.838,200.243 237.900 C 199.689 237.169,199.120 237.013,198.667 237.467 M175.200 239.800 C 175.200 240.130,175.470 240.400,175.800 240.400 C 176.130 240.400,176.400 240.130,176.400 239.800 C 176.400 239.470,176.130 239.200,175.800 239.200 C 175.470 239.200,175.200 239.470,175.200 239.800 M200.400 240.829 C 200.400 241.854,201.724 241.738,201.925 240.695 C 202.017 240.215,201.802 240.000,201.229 240.000 C 200.657 240.000,200.400 240.257,200.400 240.829 M174.200 241.200 C 173.865 241.742,174.317 242.400,175.024 242.400 C 175.341 242.400,175.600 242.040,175.600 241.600 C 175.600 240.772,174.635 240.496,174.200 241.200 M201.600 243.600 C 201.600 244.044,201.867 244.400,202.200 244.400 C 202.533 244.400,202.800 244.044,202.800 243.600 C 202.800 243.156,202.533 242.800,202.200 242.800 C 201.867 242.800,201.600 243.156,201.600 243.600 M293.345 243.800 C 293.059 244.546,293.435 245.600,293.987 245.600 C 294.214 245.600,294.400 245.060,294.400 244.400 C 294.400 243.144,293.740 242.769,293.345 243.800 M173.200 246.600 C 173.200 247.933,173.356 248.400,173.800 248.400 C 174.244 248.400,174.400 247.933,174.400 246.600 C 174.400 245.267,174.244 244.800,173.800 244.800 C 173.356 244.800,173.200 245.267,173.200 246.600 M110.875 248.274 C 110.347 249.244,110.263 256.506,110.765 257.791 C 111.704 260.194,112.512 251.478,111.636 248.400 L 111.351 247.400 110.875 248.274 M292.165 248.948 C 291.865 249.730,292.274 250.400,293.051 250.400 C 293.444 250.400,293.611 250.096,293.528 249.531 C 293.373 248.477,292.490 248.099,292.165 248.948 M291.400 252.400 C 291.108 252.872,291.487 253.600,292.024 253.600 C 292.231 253.600,292.400 253.240,292.400 252.800 C 292.400 251.956,291.818 251.724,291.400 252.400 M290.134 256.227 C 289.801 257.096,290.647 257.913,291.253 257.307 C 291.765 256.795,291.448 255.600,290.800 255.600 C 290.566 255.600,290.267 255.882,290.134 256.227 M289.600 259.400 C 289.600 259.950,289.780 260.400,290.000 260.400 C 290.220 260.400,290.400 259.950,290.400 259.400 C 290.400 258.850,290.220 258.400,290.000 258.400 C 289.780 258.400,289.600 258.850,289.600 259.400 M172.400 268.000 C 172.400 275.281,172.699 277.521,173.348 275.100 C 173.662 273.929,173.662 262.071,173.348 260.900 C 172.699 258.479,172.400 260.719,172.400 268.000 M288.400 261.833 C 288.400 262.182,288.614 262.395,288.875 262.308 C 289.617 262.061,289.740 261.200,289.033 261.200 C 288.685 261.200,288.400 261.485,288.400 261.833 M287.200 264.800 C 287.200 265.244,287.467 265.600,287.800 265.600 C 288.133 265.600,288.400 265.244,288.400 264.800 C 288.400 264.356,288.133 264.000,287.800 264.000 C 287.467 264.000,287.200 264.356,287.200 264.800 M286.250 266.319 C 285.934 266.831,286.667 267.729,287.155 267.428 C 287.797 267.031,287.702 266.000,287.024 266.000 C 286.707 266.000,286.358 266.144,286.250 266.319 M111.600 268.767 C 111.600 270.620,111.943 271.682,112.442 271.374 C 113.094 270.971,112.875 267.200,112.200 267.200 C 111.769 267.200,111.600 267.641,111.600 268.767 M201.600 271.567 C 201.600 274.080,201.725 274.800,202.163 274.800 C 203.245 274.800,203.175 268.858,202.089 268.496 C 201.731 268.377,201.600 269.197,201.600 271.567 M284.400 271.833 C 284.400 272.182,284.614 272.395,284.875 272.308 C 285.617 272.061,285.740 271.200,285.033 271.200 C 284.685 271.200,284.400 271.485,284.400 271.833 M283.467 273.067 C 282.979 273.554,283.191 274.400,283.800 274.400 C 284.133 274.400,284.400 274.044,284.400 273.600 C 284.400 272.803,283.974 272.560,283.467 273.067 M112.675 274.658 C 112.234 275.099,112.358 277.127,112.845 277.428 C 113.449 277.801,114.030 276.815,113.904 275.631 C 113.799 274.648,113.177 274.156,112.675 274.658 M282.200 275.200 C 281.865 275.742,282.317 276.400,283.024 276.400 C 283.341 276.400,283.600 276.040,283.600 275.600 C 283.600 274.772,282.635 274.496,282.200 275.200 M281.200 277.600 C 281.200 278.044,281.467 278.400,281.800 278.400 C 282.133 278.400,282.400 278.044,282.400 277.600 C 282.400 277.156,282.133 276.800,281.800 276.800 C 281.467 276.800,281.200 277.156,281.200 277.600 M280.400 279.800 C 280.400 280.167,280.594 280.402,280.830 280.323 C 281.067 280.245,281.260 280.009,281.260 279.800 C 281.260 279.591,281.067 279.356,280.830 279.277 C 280.594 279.198,280.400 279.433,280.400 279.800 M113.600 280.800 C 113.600 281.244,113.867 281.600,114.200 281.600 C 114.533 281.600,114.800 281.244,114.800 280.800 C 114.800 280.356,114.533 280.000,114.200 280.000 C 113.867 280.000,113.600 280.356,113.600 280.800 M114.650 284.319 C 114.245 284.975,115.158 285.865,115.574 285.219 C 115.970 284.602,115.786 284.000,115.200 284.000 C 115.006 284.000,114.758 284.144,114.650 284.319 M277.400 284.400 C 277.108 284.872,277.487 285.600,278.024 285.600 C 278.231 285.600,278.400 285.240,278.400 284.800 C 278.400 283.956,277.818 283.724,277.400 284.400 M173.316 285.500 C 172.878 286.829,173.210 288.871,173.900 289.100 C 174.260 289.220,174.400 288.647,174.400 287.057 C 174.400 284.589,173.868 283.825,173.316 285.500 M276.200 286.400 C 275.865 286.942,276.317 287.600,277.024 287.600 C 277.341 287.600,277.600 287.240,277.600 286.800 C 277.600 285.972,276.635 285.696,276.200 286.400 M115.600 288.600 C 115.600 289.638,116.564 290.010,116.898 289.100 C 117.174 288.351,116.807 287.600,116.167 287.600 C 115.829 287.600,115.600 288.004,115.600 288.600 M274.400 289.833 C 274.400 290.182,274.614 290.395,274.875 290.308 C 275.617 290.061,275.740 289.200,275.033 289.200 C 274.685 289.200,274.400 289.485,274.400 289.833 M116.400 291.600 C 116.400 292.202,116.609 292.418,117.100 292.324 C 117.485 292.250,117.800 291.924,117.800 291.600 C 117.800 291.276,117.485 290.950,117.100 290.876 C 116.609 290.782,116.400 290.998,116.400 291.600 M273.467 291.067 C 272.979 291.554,273.191 292.400,273.800 292.400 C 274.133 292.400,274.400 292.044,274.400 291.600 C 274.400 290.803,273.974 290.560,273.467 291.067 M117.600 294.800 C 117.600 295.244,117.867 295.600,118.200 295.600 C 118.533 295.600,118.800 295.244,118.800 294.800 C 118.800 294.356,118.533 294.000,118.200 294.000 C 117.867 294.000,117.600 294.356,117.600 294.800 M271.454 294.998 C 271.581 295.326,271.845 295.496,272.042 295.374 C 272.607 295.025,272.460 294.400,271.813 294.400 C 271.456 294.400,271.315 294.635,271.454 294.998 M174.200 296.800 C 173.867 298.318,174.325 300.491,174.936 300.290 C 175.674 300.046,175.783 295.600,175.052 295.600 C 174.723 295.600,174.347 296.130,174.200 296.800 M270.200 296.400 C 269.865 296.942,270.317 297.600,271.024 297.600 C 271.341 297.600,271.600 297.240,271.600 296.800 C 271.600 295.972,270.635 295.696,270.200 296.400 M118.492 296.875 C 118.739 297.616,119.476 297.700,119.738 297.017 C 119.904 296.585,119.729 296.400,119.154 296.400 C 118.698 296.400,118.404 296.611,118.492 296.875 M268.267 299.067 C 267.716 299.617,268.029 300.400,268.800 300.400 C 269.333 300.400,269.600 300.133,269.600 299.600 C 269.600 298.829,268.817 298.516,268.267 299.067 M119.600 299.800 C 119.600 300.130,119.870 300.400,120.200 300.400 C 120.530 300.400,120.800 300.130,120.800 299.800 C 120.800 299.470,120.530 299.200,120.200 299.200 C 119.870 299.200,119.600 299.470,119.600 299.800 M120.400 301.571 C 120.400 302.143,120.657 302.400,121.229 302.400 C 122.254 302.400,122.138 301.076,121.095 300.875 C 120.615 300.783,120.400 300.998,120.400 301.571 M266.178 302.435 C 266.031 302.674,266.094 303.054,266.320 303.280 C 266.825 303.785,267.600 303.358,267.600 302.576 C 267.600 301.903,266.571 301.800,266.178 302.435 M121.600 303.600 C 121.600 304.044,121.867 304.400,122.200 304.400 C 122.533 304.400,122.800 304.044,122.800 303.600 C 122.800 303.156,122.533 302.800,122.200 302.800 C 121.867 302.800,121.600 303.156,121.600 303.600 M122.400 305.571 C 122.400 306.143,122.657 306.400,123.229 306.400 C 124.254 306.400,124.138 305.076,123.095 304.875 C 122.615 304.783,122.400 304.998,122.400 305.571 M264.000 305.800 C 264.000 306.133,264.356 306.400,264.800 306.400 C 265.244 306.400,265.600 306.133,265.600 305.800 C 265.600 305.467,265.244 305.200,264.800 305.200 C 264.356 305.200,264.000 305.467,264.000 305.800 M175.273 306.612 C 175.343 307.169,175.580 307.625,175.800 307.625 C 176.020 307.625,176.257 307.169,176.327 306.612 C 176.417 305.891,176.265 305.600,175.800 305.600 C 175.335 305.600,175.183 305.891,175.273 306.612 M201.873 306.660 C 201.454 307.079,201.549 311.600,201.976 311.600 C 202.630 311.600,202.901 310.773,202.863 308.891 C 202.827 307.086,202.403 306.131,201.873 306.660 M262.200 308.400 C 261.865 308.942,262.317 309.600,263.024 309.600 C 263.341 309.600,263.600 309.240,263.600 308.800 C 263.600 307.972,262.635 307.696,262.200 308.400 M125.600 310.800 C 125.600 311.244,125.867 311.600,126.200 311.600 C 126.533 311.600,126.800 311.244,126.800 310.800 C 126.800 310.356,126.533 310.000,126.200 310.000 C 125.867 310.000,125.600 310.356,125.600 310.800 M176.234 311.808 C 175.936 312.995,176.202 313.600,177.024 313.600 C 177.767 313.600,177.784 311.851,177.046 311.238 C 176.604 310.871,176.440 310.986,176.234 311.808 M260.267 311.067 C 259.716 311.617,260.029 312.400,260.800 312.400 C 261.333 312.400,261.600 312.133,261.600 311.600 C 261.600 310.829,260.817 310.516,260.267 311.067 M127.600 313.800 C 127.600 314.130,127.870 314.400,128.200 314.400 C 128.530 314.400,128.800 314.130,128.800 313.800 C 128.800 313.470,128.530 313.200,128.200 313.200 C 127.870 313.200,127.600 313.470,127.600 313.800 M258.014 314.774 C 257.339 316.035,257.516 316.364,258.597 315.862 C 259.671 315.364,259.977 314.000,259.014 314.000 C 258.692 314.000,258.242 314.348,258.014 314.774 M129.600 316.800 C 129.600 317.244,129.867 317.600,130.200 317.600 C 130.533 317.600,130.800 317.244,130.800 316.800 C 130.800 316.356,130.533 316.000,130.200 316.000 C 129.867 316.000,129.600 316.356,129.600 316.800 M177.467 316.667 C 176.963 317.170,177.200 318.400,177.800 318.400 C 178.173 318.400,178.400 318.022,178.400 317.400 C 178.400 316.429,178.011 316.123,177.467 316.667 M202.667 316.667 C 202.105 317.228,202.385 319.600,203.013 319.600 C 203.803 319.600,204.153 318.664,203.836 317.399 C 203.587 316.408,203.180 316.153,202.667 316.667 M255.292 318.875 C 255.539 319.617,256.400 319.740,256.400 319.033 C 256.400 318.685,256.115 318.400,255.767 318.400 C 255.418 318.400,255.205 318.614,255.292 318.875 M132.237 320.600 C 132.954 321.695,133.401 321.846,133.838 321.139 C 134.146 320.641,132.981 319.600,132.114 319.600 C 131.703 319.600,131.731 319.828,132.237 320.600 M178.211 320.782 C 177.829 321.400,178.387 322.871,178.934 322.689 C 179.538 322.487,179.541 320.714,178.937 320.512 C 178.682 320.427,178.355 320.549,178.211 320.782 M253.200 321.800 C 253.200 322.130,253.470 322.400,253.800 322.400 C 254.130 322.400,254.400 322.130,254.400 321.800 C 254.400 321.470,254.130 321.200,253.800 321.200 C 253.470 321.200,253.200 321.470,253.200 321.800 M203.856 323.078 C 203.323 323.610,203.595 325.600,204.200 325.600 C 204.597 325.600,204.800 325.203,204.800 324.424 C 204.800 323.249,204.340 322.593,203.856 323.078 M135.600 324.629 C 135.600 325.530,136.715 326.518,137.424 326.246 C 137.955 326.042,137.948 325.893,137.368 325.007 C 136.631 323.883,135.600 323.662,135.600 324.629 M251.200 324.800 C 251.200 325.244,251.467 325.600,251.800 325.600 C 252.133 325.600,252.400 325.244,252.400 324.800 C 252.400 324.356,252.133 324.000,251.800 324.000 C 251.467 324.000,251.200 324.356,251.200 324.800 M179.352 324.981 C 179.229 325.300,179.246 325.750,179.388 325.981 C 179.854 326.735,180.400 326.421,180.400 325.400 C 180.400 324.316,179.713 324.041,179.352 324.981 M249.252 327.337 C 248.763 327.927,249.036 328.400,249.867 328.400 C 250.160 328.400,250.400 328.040,250.400 327.600 C 250.400 326.677,249.896 326.561,249.252 327.337 M180.200 328.000 C 179.865 328.542,180.317 329.200,181.024 329.200 C 181.341 329.200,181.600 328.840,181.600 328.400 C 181.600 327.572,180.635 327.296,180.200 328.000 M204.400 328.600 C 204.400 329.393,204.576 329.625,205.100 329.524 C 205.485 329.450,205.800 329.034,205.800 328.600 C 205.800 328.166,205.485 327.750,205.100 327.676 C 204.576 327.575,204.400 327.807,204.400 328.600 M246.904 331.074 C 246.631 331.661,246.479 332.212,246.565 332.299 C 246.915 332.649,248.400 331.358,248.400 330.704 C 248.400 329.636,247.464 329.868,246.904 331.074 M140.400 330.571 C 140.400 330.968,143.942 334.400,144.352 334.400 C 145.214 334.400,144.787 333.463,143.231 331.938 C 141.919 330.651,140.400 329.918,140.400 330.571 M181.467 330.667 C 180.979 331.154,181.191 332.000,181.800 332.000 C 182.133 332.000,182.400 331.644,182.400 331.200 C 182.400 330.403,181.974 330.160,181.467 330.667 M205.600 332.400 C 205.600 333.236,205.770 333.610,206.100 333.500 C 206.375 333.408,206.600 332.913,206.600 332.400 C 206.600 331.887,206.375 331.392,206.100 331.300 C 205.770 331.190,205.600 331.564,205.600 332.400 M182.400 333.167 C 182.400 333.658,182.658 334.000,183.029 334.000 C 183.402 334.000,183.606 333.728,183.529 333.333 C 183.335 332.330,182.400 332.192,182.400 333.167 M144.626 334.758 C 144.504 334.955,144.674 335.219,145.002 335.346 C 145.365 335.485,145.600 335.344,145.600 334.987 C 145.600 334.340,144.975 334.193,144.626 334.758 M244.400 335.033 C 244.400 335.740,245.261 335.617,245.508 334.875 C 245.595 334.614,245.382 334.400,245.033 334.400 C 244.685 334.400,244.400 334.685,244.400 335.033 M206.400 335.629 C 206.400 336.654,207.724 336.538,207.925 335.495 C 208.017 335.015,207.802 334.800,207.229 334.800 C 206.657 334.800,206.400 335.057,206.400 335.629 M184.267 336.667 C 183.716 337.217,184.029 338.000,184.800 338.000 C 185.333 338.000,185.600 337.733,185.600 337.200 C 185.600 336.429,184.817 336.116,184.267 336.667 M242.278 337.456 C 241.904 337.829,242.355 338.400,243.024 338.400 C 243.341 338.400,243.600 338.130,243.600 337.800 C 243.600 337.198,242.756 336.978,242.278 337.456 M207.600 338.833 C 207.600 339.808,208.535 339.670,208.729 338.667 C 208.806 338.272,208.602 338.000,208.229 338.000 C 207.858 338.000,207.600 338.342,207.600 338.833 M185.467 338.667 C 184.979 339.154,185.191 340.000,185.800 340.000 C 186.133 340.000,186.400 339.644,186.400 339.200 C 186.400 338.403,185.974 338.160,185.467 338.667 M240.178 340.435 C 240.031 340.674,240.094 341.054,240.320 341.280 C 240.825 341.785,241.600 341.358,241.600 340.576 C 241.600 339.903,240.571 339.800,240.178 340.435 M187.200 342.200 C 187.200 342.530,187.470 342.800,187.800 342.800 C 188.130 342.800,188.400 342.530,188.400 342.200 C 188.400 341.870,188.130 341.600,187.800 341.600 C 187.470 341.600,187.200 341.870,187.200 342.200 M208.534 342.227 C 208.201 343.096,209.047 343.913,209.653 343.307 C 210.165 342.795,209.848 341.600,209.200 341.600 C 208.966 341.600,208.667 341.882,208.534 342.227 M238.213 343.179 C 237.861 343.748,238.310 344.400,239.053 344.400 C 239.403 344.400,239.604 344.119,239.529 343.733 C 239.374 342.930,238.575 342.593,238.213 343.179 M188.400 344.200 C 188.400 344.530,188.670 344.800,189.000 344.800 C 189.330 344.800,189.600 344.530,189.600 344.200 C 189.600 343.870,189.330 343.600,189.000 343.600 C 188.670 343.600,188.400 343.870,188.400 344.200 M154.800 344.800 C 154.800 345.020,154.980 345.200,155.200 345.200 C 155.420 345.200,155.600 345.404,155.600 345.653 C 155.600 345.902,156.230 346.700,157.000 347.426 C 157.770 348.152,158.400 348.938,158.400 349.173 C 158.400 349.408,158.760 349.600,159.200 349.600 C 159.733 349.600,160.000 349.333,160.000 348.800 C 160.000 348.360,159.848 348.000,159.661 348.000 C 159.475 348.000,158.674 347.370,157.881 346.600 C 157.088 345.830,156.251 345.200,156.020 345.200 C 155.789 345.200,155.600 345.020,155.600 344.800 C 155.600 344.580,155.420 344.400,155.200 344.400 C 154.980 344.400,154.800 344.580,154.800 344.800 M209.600 345.600 C 209.600 346.044,209.867 346.400,210.200 346.400 C 210.533 346.400,210.800 346.044,210.800 345.600 C 210.800 345.156,210.533 344.800,210.200 344.800 C 209.867 344.800,209.600 345.156,209.600 345.600 M237.467 345.067 C 236.979 345.554,237.191 346.400,237.800 346.400 C 238.133 346.400,238.400 346.044,238.400 345.600 C 238.400 344.803,237.974 344.560,237.467 345.067 M190.200 346.800 C 189.865 347.342,190.317 348.000,191.024 348.000 C 191.341 348.000,191.600 347.640,191.600 347.200 C 191.600 346.372,190.635 346.096,190.200 346.800 M210.400 348.829 C 210.400 349.854,211.724 349.738,211.925 348.695 C 212.017 348.215,211.802 348.000,211.229 348.000 C 210.657 348.000,210.400 348.257,210.400 348.829 M192.076 350.300 C 192.150 350.685,192.476 351.000,192.800 351.000 C 193.124 351.000,193.450 350.685,193.524 350.300 C 193.618 349.809,193.402 349.600,192.800 349.600 C 192.198 349.600,191.982 349.809,192.076 350.300 M211.600 351.600 C 211.600 352.044,211.867 352.400,212.200 352.400 C 212.533 352.400,212.800 352.044,212.800 351.600 C 212.800 351.156,212.533 350.800,212.200 350.800 C 211.867 350.800,211.600 351.156,211.600 351.600 M194.275 352.658 C 193.709 353.225,194.029 354.000,194.829 354.000 C 195.389 354.000,195.617 353.783,195.529 353.333 C 195.387 352.597,194.704 352.230,194.275 352.658 M164.667 353.467 C 164.206 353.927,164.375 354.400,165.000 354.400 C 165.330 354.400,165.600 354.670,165.600 355.000 C 165.600 355.330,165.870 355.600,166.200 355.600 C 166.961 355.600,166.978 354.520,166.229 353.771 C 165.608 353.151,165.085 353.049,164.667 353.467 M212.400 353.829 C 212.400 354.202,212.672 354.406,213.067 354.329 C 214.070 354.135,214.208 353.200,213.233 353.200 C 212.742 353.200,212.400 353.458,212.400 353.829 M195.600 355.018 C 195.600 355.338,195.780 355.600,196.000 355.600 C 196.220 355.600,196.400 355.870,196.400 356.200 C 196.400 356.530,196.670 356.800,197.000 356.800 C 197.820 356.800,197.761 356.597,196.600 355.436 C 195.917 354.753,195.600 354.621,195.600 355.018 M232.400 355.033 C 232.400 355.382,232.614 355.595,232.875 355.508 C 233.617 355.261,233.740 354.400,233.033 354.400 C 232.685 354.400,232.400 354.685,232.400 355.033 M231.271 356.667 C 231.465 357.670,232.400 357.808,232.400 356.833 C 232.400 356.342,232.142 356.000,231.771 356.000 C 231.398 356.000,231.194 356.272,231.271 356.667 M169.600 357.800 C 169.600 358.130,169.870 358.400,170.200 358.400 C 170.530 358.400,170.800 358.130,170.800 357.800 C 170.800 357.470,170.530 357.200,170.200 357.200 C 169.870 357.200,169.600 357.470,169.600 357.800 M197.439 357.938 C 197.300 358.161,197.382 358.465,197.620 358.612 C 198.235 358.993,198.632 358.472,198.118 357.958 C 197.831 357.671,197.607 357.664,197.439 357.938 M230.200 358.400 C 229.865 358.942,230.317 359.600,231.024 359.600 C 231.341 359.600,231.600 359.240,231.600 358.800 C 231.600 357.972,230.635 357.696,230.200 358.400 M173.867 360.267 C 173.379 360.754,173.591 361.600,174.200 361.600 C 174.533 361.600,174.800 361.244,174.800 360.800 C 174.800 360.003,174.374 359.760,173.867 360.267 M199.467 360.667 C 198.979 361.154,199.191 362.000,199.800 362.000 C 200.133 362.000,200.400 361.644,200.400 361.200 C 200.400 360.403,199.974 360.160,199.467 360.667 M176.500 362.900 C 176.752 363.657,178.000 363.764,178.000 363.029 C 178.000 362.658,177.658 362.400,177.167 362.400 C 176.678 362.400,176.402 362.607,176.500 362.900 M227.456 363.078 C 226.978 363.556,227.198 364.400,227.800 364.400 C 228.130 364.400,228.400 364.141,228.400 363.824 C 228.400 363.155,227.829 362.704,227.456 363.078 M179.600 365.000 C 179.600 365.330,179.870 365.600,180.200 365.600 C 180.530 365.600,180.800 365.330,180.800 365.000 C 180.800 364.670,180.530 364.400,180.200 364.400 C 179.870 364.400,179.600 364.670,179.600 365.000 M218.667 365.067 C 218.179 365.554,218.391 366.400,219.000 366.400 C 219.330 366.400,219.600 366.670,219.600 367.000 C 219.600 367.330,219.870 367.600,220.200 367.600 C 221.004 367.600,220.960 366.596,220.111 365.605 C 219.377 364.747,219.092 364.641,218.667 365.067 M202.200 366.000 C 201.865 366.542,202.317 367.200,203.024 367.200 C 203.341 367.200,203.600 366.840,203.600 366.400 C 203.600 365.572,202.635 365.296,202.200 366.000 M182.675 366.258 C 182.109 366.825,182.429 367.600,183.229 367.600 C 183.789 367.600,184.017 367.383,183.929 366.933 C 183.787 366.197,183.104 365.830,182.675 366.258 M222.500 367.110 C 220.999 367.353,221.404 368.400,223.000 368.400 C 223.930 368.400,224.400 368.213,224.400 367.843 C 224.400 367.174,223.722 366.912,222.500 367.110 M203.200 368.400 C 203.200 368.844,203.467 369.200,203.800 369.200 C 204.133 369.200,204.400 368.844,204.400 368.400 C 204.400 367.956,204.133 367.600,203.800 367.600 C 203.467 367.600,203.200 367.956,203.200 368.400 M204.183 371.500 C 204.056 372.105,203.770 372.933,203.548 373.339 C 202.971 374.396,203.368 374.570,204.565 373.786 C 205.341 373.278,205.600 372.769,205.600 371.754 C 205.600 370.073,204.525 369.880,204.183 371.500 M192.667 371.467 C 192.160 371.974,192.403 372.400,193.200 372.400 C 193.644 372.400,194.000 372.133,194.000 371.800 C 194.000 371.191,193.154 370.979,192.667 371.467 M194.849 372.362 C 194.124 372.820,194.631 373.600,195.653 373.600 C 196.190 373.600,196.416 373.378,196.329 372.933 C 196.172 372.120,195.587 371.895,194.849 372.362 M198.667 373.467 C 198.093 374.040,198.453 374.400,199.600 374.400 C 200.400 374.400,200.800 374.200,200.800 373.800 C 200.800 373.195,199.190 372.943,198.667 373.467 " stroke="none" fill="#a6d29e" fill-rule="evenodd"></path><path id="path1" d="M168.618 36.715 C 168.245 37.088,168.379 60.618,168.757 61.020 C 169.326 61.625,168.798 64.000,168.095 64.000 C 167.574 64.000,167.516 64.500,167.715 67.317 C 167.956 70.731,167.678 71.943,166.781 71.389 C 166.380 71.140,166.329 71.676,166.541 73.948 C 166.765 76.364,166.707 76.861,166.174 77.065 C 165.677 77.256,165.569 77.792,165.670 79.554 C 165.785 81.533,165.712 81.793,165.064 81.738 C 164.415 81.684,164.344 81.943,164.464 83.938 C 164.568 85.673,164.475 86.174,164.062 86.087 C 163.652 86.002,163.557 86.477,163.662 88.087 C 163.784 89.954,163.713 90.193,163.049 90.136 C 162.378 90.079,162.322 90.284,162.530 92.036 C 162.718 93.629,162.647 94.000,162.154 94.000 C 161.685 94.000,161.575 94.390,161.673 95.700 C 161.782 97.158,161.693 97.391,161.051 97.336 C 160.389 97.280,160.330 97.479,160.543 99.036 C 160.739 100.466,160.667 100.800,160.165 100.800 C 159.683 100.800,159.574 101.177,159.673 102.500 C 159.779 103.917,159.683 104.191,159.100 104.144 C 158.306 104.081,158.195 104.870,158.830 106.056 C 159.190 106.728,159.123 106.895,158.419 107.079 C 157.730 107.259,157.598 107.562,157.689 108.750 C 157.779 109.923,157.666 110.189,157.100 110.144 C 156.306 110.081,156.195 110.870,156.830 112.056 C 157.191 112.731,157.122 112.895,156.396 113.085 C 155.656 113.279,155.568 113.505,155.784 114.656 C 156.007 115.844,155.936 116.000,155.174 116.000 C 154.404 116.000,154.339 116.152,154.574 117.400 C 154.782 118.509,154.708 118.800,154.218 118.800 C 153.643 118.800,153.387 119.751,153.583 121.154 C 153.633 121.518,153.431 121.621,152.995 121.453 C 152.418 121.232,152.365 121.410,152.600 122.799 C 152.828 124.149,152.763 124.400,152.185 124.400 C 151.637 124.400,151.548 124.640,151.740 125.600 C 151.941 126.605,151.853 126.800,151.200 126.800 C 150.547 126.800,150.459 126.995,150.660 128.000 C 150.853 128.965,150.764 129.200,150.205 129.200 C 149.653 129.200,149.547 129.459,149.693 130.454 C 149.836 131.427,149.713 131.750,149.142 131.899 C 148.593 132.043,148.468 132.332,148.647 133.046 C 148.825 133.755,148.722 134.000,148.243 134.000 C 147.775 134.000,147.600 134.380,147.600 135.400 C 147.600 136.170,147.401 136.800,147.157 136.800 C 146.914 136.800,146.818 136.530,146.945 136.200 C 147.071 135.870,146.978 135.600,146.736 135.600 C 146.448 135.600,146.386 136.152,146.555 137.210 C 146.755 138.460,146.674 138.873,146.194 139.057 C 145.793 139.212,145.663 139.568,145.824 140.075 C 146.006 140.649,145.850 140.914,145.236 141.075 C 144.776 141.195,144.400 141.542,144.400 141.847 C 144.400 142.151,144.206 142.400,143.969 142.400 C 143.712 142.400,143.584 143.083,143.652 144.100 C 143.747 145.518,143.648 145.790,143.060 145.741 C 142.483 145.692,142.401 145.892,142.609 146.841 C 142.806 147.738,142.721 148.000,142.232 148.000 C 141.867 148.000,141.600 148.338,141.600 148.800 C 141.600 149.273,141.333 149.600,140.947 149.600 C 140.417 149.600,140.335 149.899,140.509 151.200 C 140.678 152.456,140.594 152.800,140.119 152.800 C 139.673 152.800,139.579 153.063,139.764 153.800 C 139.970 154.619,139.869 154.800,139.208 154.800 C 138.281 154.800,138.237 154.948,138.830 156.056 C 139.189 156.727,139.123 156.895,138.430 157.076 C 137.973 157.196,137.600 157.523,137.600 157.804 C 137.600 158.085,137.330 158.418,137.000 158.545 C 136.670 158.671,136.400 159.126,136.400 159.554 C 136.400 159.983,136.175 160.424,135.900 160.535 C 135.613 160.651,135.713 160.750,136.133 160.768 C 136.543 160.786,136.786 161.021,136.683 161.300 C 136.582 161.575,136.282 161.750,136.016 161.689 C 135.676 161.610,135.611 161.938,135.797 162.789 C 136.028 163.837,135.950 164.000,135.224 164.000 C 134.529 164.000,134.428 164.171,134.636 165.000 C 134.826 165.756,134.730 166.000,134.243 166.000 C 133.867 166.000,133.600 166.332,133.600 166.800 C 133.600 167.272,133.333 167.600,132.949 167.600 C 132.413 167.600,132.343 167.884,132.554 169.200 C 132.764 170.514,132.693 170.800,132.161 170.800 C 131.664 170.800,131.574 171.041,131.773 171.833 C 131.980 172.658,131.867 172.910,131.216 173.080 C 130.767 173.197,130.400 173.527,130.400 173.813 C 130.400 174.099,130.216 174.395,129.991 174.470 C 129.767 174.544,129.557 175.287,129.526 176.121 C 129.483 177.266,129.328 177.581,128.889 177.413 C 128.422 177.234,128.361 177.465,128.573 178.595 C 128.783 179.715,128.709 180.000,128.211 180.000 C 127.743 180.000,127.648 180.253,127.836 181.000 C 128.044 181.830,127.943 182.000,127.243 182.000 C 126.573 182.000,126.400 182.246,126.400 183.200 C 126.400 183.860,126.197 184.400,125.950 184.400 C 125.663 184.400,125.587 184.836,125.740 185.600 C 125.965 186.727,125.729 187.010,124.700 186.847 C 124.535 186.821,124.400 187.160,124.400 187.600 C 124.400 188.040,124.220 188.400,124.000 188.400 C 123.780 188.400,123.600 188.591,123.600 188.824 C 123.600 189.057,123.768 189.144,123.972 189.017 C 124.177 188.891,124.458 188.970,124.596 189.193 C 124.734 189.417,124.552 189.600,124.192 189.600 C 123.672 189.600,123.591 189.848,123.800 190.800 C 124.030 191.848,123.953 192.000,123.187 192.000 C 122.402 192.000,122.338 192.146,122.574 193.400 C 122.786 194.533,122.712 194.800,122.187 194.800 C 121.683 194.800,121.565 195.134,121.658 196.300 C 121.758 197.550,121.655 197.789,121.044 197.737 C 120.408 197.682,120.343 197.884,120.560 199.237 C 120.764 200.514,120.691 200.800,120.161 200.800 C 119.651 200.800,119.549 201.110,119.683 202.257 C 119.818 203.414,119.703 203.752,119.126 203.903 C 118.349 204.107,118.187 205.044,118.769 205.964 C 119.233 206.697,118.876 207.600,118.123 207.600 C 117.672 207.600,117.563 208.006,117.666 209.300 C 117.781 210.754,117.693 210.991,117.059 210.938 C 116.391 210.881,116.344 211.089,116.587 213.038 C 116.820 214.896,116.764 215.200,116.192 215.200 C 115.638 215.200,115.550 215.553,115.663 217.300 C 115.785 219.170,115.718 219.386,115.050 219.271 C 114.357 219.152,114.322 219.341,114.582 221.771 C 114.829 224.077,114.781 224.400,114.192 224.400 C 113.613 224.400,113.540 224.797,113.661 227.300 C 113.787 229.939,113.732 230.194,113.048 230.136 C 112.339 230.075,112.312 230.314,112.575 234.236 C 112.827 238.009,112.789 238.400,112.168 238.400 C 111.533 238.400,111.503 239.082,111.750 247.700 C 111.898 252.815,111.879 257.207,111.709 257.459 C 111.078 258.396,111.587 267.200,112.272 267.200 C 112.812 267.200,112.858 267.701,112.613 270.961 C 112.351 274.459,112.383 274.718,113.066 274.661 C 113.724 274.606,113.786 274.880,113.664 277.300 C 113.551 279.563,113.632 280.000,114.168 280.000 C 114.706 280.000,114.767 280.342,114.553 282.164 C 114.325 284.102,114.375 284.321,115.032 284.264 C 115.654 284.210,115.748 284.458,115.652 285.900 C 115.567 287.180,115.684 287.600,116.127 287.600 C 116.877 287.600,117.232 288.505,116.769 289.236 C 116.202 290.133,116.339 290.691,117.182 290.911 C 117.835 291.082,117.925 291.353,117.729 292.558 C 117.535 293.755,117.614 294.000,118.198 294.000 C 118.765 294.000,118.854 294.231,118.660 295.200 C 118.465 296.173,118.554 296.400,119.130 296.400 C 119.705 296.400,119.808 296.665,119.676 297.800 C 119.545 298.922,119.649 299.200,120.203 299.200 C 120.686 299.200,120.833 299.430,120.693 299.965 C 120.554 300.496,120.740 300.796,121.299 300.942 C 121.882 301.094,122.046 301.381,121.890 301.976 C 121.742 302.542,121.866 302.800,122.284 302.800 C 122.713 302.800,122.838 303.087,122.708 303.769 C 122.571 304.485,122.726 304.792,123.299 304.942 C 123.936 305.108,124.027 305.365,123.806 306.372 C 123.635 307.151,123.694 307.600,123.968 307.600 C 124.206 307.600,124.400 308.036,124.400 308.568 C 124.400 309.326,124.670 309.596,125.642 309.809 C 126.759 310.055,126.860 310.198,126.652 311.241 C 126.480 312.101,126.572 312.400,127.010 312.400 C 127.335 312.400,127.600 312.580,127.600 312.800 C 127.600 313.020,127.884 313.200,128.232 313.200 C 128.721 313.200,128.806 313.462,128.608 314.363 C 128.376 315.421,128.467 315.551,129.618 315.804 C 130.761 316.055,130.861 316.194,130.652 317.241 C 130.480 318.101,130.572 318.400,131.010 318.400 C 131.335 318.400,131.600 318.631,131.600 318.912 C 131.600 319.194,132.147 319.631,132.815 319.883 C 133.856 320.276,133.993 320.489,133.772 321.371 C 133.610 322.013,133.680 322.400,133.957 322.400 C 134.200 322.400,134.400 322.656,134.400 322.968 C 134.400 323.281,134.941 323.655,135.603 323.801 C 136.880 324.081,137.835 325.337,137.656 326.503 C 137.542 327.252,138.459 328.400,139.171 328.400 C 139.407 328.400,139.600 328.593,139.600 328.829 C 139.600 329.427,140.482 330.245,141.463 330.556 C 142.623 330.925,144.909 333.539,144.653 334.205 C 144.515 334.567,144.642 334.682,145.020 334.537 C 145.435 334.378,145.600 334.611,145.600 335.357 C 145.600 335.931,145.780 336.400,146.000 336.400 C 146.220 336.400,146.400 336.670,146.400 337.000 C 146.400 337.330,146.593 337.600,146.829 337.600 C 147.382 337.600,148.400 338.618,148.400 339.171 C 148.400 339.407,148.593 339.600,148.829 339.600 C 149.382 339.600,150.400 340.618,150.400 341.171 C 150.400 341.407,150.593 341.600,150.829 341.600 C 151.382 341.600,152.400 342.618,152.400 343.171 C 152.400 343.407,152.593 343.600,152.829 343.600 C 153.402 343.600,154.400 344.626,154.400 345.215 C 154.400 345.520,154.757 345.597,155.410 345.433 C 156.212 345.232,156.717 345.469,157.871 346.590 C 158.669 347.365,159.453 348.000,159.611 348.000 C 159.770 348.000,160.008 348.540,160.140 349.200 C 160.281 349.904,160.632 350.400,160.990 350.400 C 161.326 350.400,161.600 350.593,161.600 350.829 C 161.600 351.382,162.618 352.400,163.171 352.400 C 163.407 352.400,163.600 352.690,163.600 353.043 C 163.600 353.533,163.843 353.626,164.617 353.432 C 165.693 353.161,166.800 353.897,166.800 354.883 C 166.800 355.180,167.160 355.683,167.600 356.000 C 168.040 356.317,168.400 356.821,168.400 357.120 C 168.400 357.516,168.726 357.592,169.600 357.400 C 170.538 357.194,170.800 357.274,170.800 357.768 C 170.800 358.116,170.980 358.400,171.200 358.400 C 171.420 358.400,171.600 358.593,171.600 358.829 C 171.600 359.712,172.815 360.483,173.812 360.233 C 174.552 360.047,174.800 360.144,174.800 360.621 C 174.800 361.560,175.805 362.400,176.928 362.400 C 177.645 362.400,177.982 362.672,178.164 363.400 C 178.362 364.187,178.669 364.400,179.608 364.400 C 180.263 364.400,180.800 364.593,180.800 364.829 C 180.800 365.664,181.983 366.459,182.827 366.191 C 183.455 365.992,183.709 366.131,183.875 366.764 C 183.995 367.224,184.355 367.600,184.675 367.600 C 185.355 367.600,186.400 368.552,186.400 369.171 C 186.400 369.407,186.850 369.600,187.400 369.600 C 187.950 369.600,188.400 369.780,188.400 370.000 C 188.400 370.220,188.850 370.400,189.400 370.400 C 190.059 370.400,190.400 370.623,190.400 371.054 C 190.400 371.600,190.700 371.668,192.200 371.462 C 193.682 371.259,194.000 371.328,194.000 371.851 C 194.000 372.335,194.247 372.425,195.033 372.227 C 195.869 372.018,196.109 372.132,196.290 372.823 C 196.495 373.607,196.692 373.656,198.657 373.410 C 200.452 373.186,200.800 373.244,200.800 373.771 C 200.800 374.680,202.887 374.592,203.470 373.659 C 204.362 372.232,204.585 369.200,203.799 369.200 C 203.282 369.200,203.154 368.954,203.292 368.231 C 203.426 367.529,203.274 367.208,202.741 367.069 C 202.143 366.912,202.054 366.632,202.265 365.576 C 202.451 364.643,202.394 364.356,202.062 364.561 C 201.752 364.753,201.600 364.455,201.600 363.655 C 201.600 362.651,201.407 362.421,200.376 362.195 C 199.270 361.952,199.177 361.815,199.408 360.763 C 199.566 360.046,199.500 359.600,199.236 359.600 C 198.399 359.600,197.299 358.307,197.496 357.554 C 197.629 357.045,197.483 356.800,197.047 356.800 C 196.691 356.800,196.400 356.530,196.400 356.200 C 196.400 355.870,196.220 355.600,196.000 355.600 C 195.780 355.600,195.600 355.240,195.600 354.800 C 195.600 354.253,195.333 354.000,194.757 354.000 C 194.053 354.000,193.956 353.831,194.168 352.983 C 194.442 351.893,193.826 351.000,192.800 351.000 C 192.373 351.000,192.228 350.636,192.296 349.738 C 192.379 348.652,192.221 348.416,191.166 348.048 C 190.184 347.706,189.991 347.459,190.197 346.809 C 190.459 345.983,189.654 344.800,188.829 344.800 C 188.593 344.800,188.400 344.350,188.400 343.800 C 188.400 343.155,188.175 342.800,187.768 342.800 C 187.279 342.800,187.194 342.538,187.392 341.637 C 187.624 340.580,187.532 340.449,186.390 340.198 C 185.306 339.960,185.166 339.789,185.374 338.961 C 185.571 338.175,185.462 338.000,184.776 338.000 C 184.051 338.000,183.972 337.836,184.200 336.800 C 184.366 336.045,184.303 335.600,184.032 335.600 C 183.794 335.600,183.600 335.240,183.600 334.800 C 183.600 334.356,183.333 334.000,183.000 334.000 C 182.627 334.000,182.400 333.622,182.400 333.000 C 182.400 332.365,182.175 332.000,181.782 332.000 C 181.297 332.000,181.218 331.710,181.416 330.656 C 181.629 329.517,181.541 329.278,180.836 329.094 C 180.155 328.916,180.048 328.662,180.241 327.696 C 180.413 326.834,180.306 326.450,179.844 326.272 C 179.337 326.078,179.262 325.656,179.469 324.152 C 179.669 322.690,179.614 322.344,179.218 322.589 C 178.426 323.078,178.015 321.999,178.274 320.109 C 178.467 318.704,178.394 318.400,177.861 318.400 C 177.309 318.400,177.249 318.051,177.457 316.060 C 177.678 313.946,177.624 313.700,176.901 313.510 C 176.168 313.319,176.117 313.056,176.305 310.432 C 176.470 308.120,176.402 307.586,175.955 307.682 C 175.504 307.778,175.427 307.070,175.547 303.895 C 175.674 300.516,175.612 300.021,175.082 300.224 C 174.215 300.557,174.107 299.709,174.327 294.288 C 174.491 290.254,174.425 289.505,173.868 289.088 C 173.510 288.819,173.225 288.060,173.235 287.400 C 173.246 286.740,173.318 283.590,173.397 280.400 C 173.475 277.210,173.450 274.915,173.341 275.300 C 172.704 277.538,172.400 275.180,172.400 268.000 C 172.400 260.773,172.693 258.530,173.355 260.700 C 173.472 261.085,173.509 257.665,173.436 253.100 C 173.323 245.933,173.387 244.800,173.904 244.800 C 174.381 244.800,174.461 244.420,174.296 242.951 C 174.122 241.411,174.206 241.071,174.797 240.917 C 175.267 240.794,175.439 240.473,175.307 239.965 C 175.193 239.529,175.311 239.200,175.582 239.200 C 176.189 239.200,177.200 238.198,177.200 237.597 C 177.200 237.293,177.609 237.226,178.400 237.400 C 179.338 237.606,179.600 237.526,179.600 237.032 C 179.600 236.684,179.870 236.400,180.200 236.400 C 180.530 236.400,180.800 236.175,180.800 235.900 C 180.800 235.239,196.103 235.308,196.323 235.970 C 196.402 236.206,196.722 236.400,197.033 236.400 C 197.345 236.400,197.600 236.684,197.600 237.032 C 197.600 237.516,197.862 237.606,198.724 237.417 C 199.921 237.154,201.211 238.611,200.624 239.562 C 200.460 239.826,200.686 240.000,201.195 240.000 C 201.940 240.000,202.006 240.160,201.774 241.400 C 201.578 242.443,201.650 242.800,202.055 242.800 C 202.506 242.799,202.578 244.971,202.474 255.375 C 202.405 262.292,202.495 268.547,202.674 269.276 C 203.183 271.343,202.873 274.800,202.179 274.800 C 201.683 274.800,201.600 277.101,201.600 290.800 C 201.600 303.164,201.711 306.777,202.087 306.700 C 202.725 306.569,203.127 309.055,202.718 310.597 C 202.221 312.471,202.315 316.900,202.845 316.572 C 203.665 316.065,203.974 317.378,203.726 320.320 C 203.524 322.705,203.582 323.218,204.040 323.120 C 204.477 323.026,204.578 323.495,204.500 325.253 C 204.413 327.224,204.503 327.534,205.211 327.719 C 205.910 327.901,205.986 328.147,205.769 329.506 C 205.567 330.769,205.651 331.134,206.193 331.342 C 206.741 331.552,206.818 331.907,206.600 333.201 C 206.356 334.644,206.411 334.800,207.170 334.800 C 207.925 334.800,207.984 334.960,207.754 336.400 C 207.546 337.700,207.616 338.000,208.130 338.000 C 208.652 338.000,208.722 338.342,208.530 339.964 C 208.322 341.716,208.378 341.921,209.049 341.864 C 209.680 341.810,209.781 342.040,209.683 343.300 C 209.591 344.468,209.710 344.800,210.218 344.800 C 210.757 344.800,210.824 345.077,210.600 346.400 C 210.355 347.851,210.409 348.000,211.183 348.000 C 211.942 348.000,212.007 348.155,211.774 349.400 C 211.555 350.563,211.628 350.800,212.205 350.800 C 212.764 350.800,212.853 351.035,212.660 352.000 C 212.459 353.005,212.547 353.200,213.200 353.200 C 213.853 353.200,213.941 353.395,213.740 354.400 C 213.563 355.284,213.650 355.600,214.070 355.600 C 214.485 355.600,214.595 355.979,214.476 357.000 C 214.349 358.088,214.456 358.400,214.956 358.400 C 215.376 358.400,215.600 358.748,215.600 359.400 C 215.600 359.950,215.780 360.400,216.000 360.400 C 216.220 360.400,216.400 360.850,216.400 361.400 C 216.400 362.022,216.627 362.400,217.000 362.400 C 217.340 362.400,217.600 362.759,217.600 363.229 C 217.600 364.134,218.553 365.314,218.957 364.910 C 219.311 364.556,220.800 366.236,220.800 366.991 C 220.800 367.471,221.052 367.552,221.893 367.341 C 223.142 367.027,223.454 367.036,224.700 367.418 C 225.283 367.596,225.600 367.526,225.600 367.218 C 225.600 366.625,226.597 365.600,227.173 365.600 C 227.412 365.600,227.558 365.024,227.502 364.300 C 227.434 363.433,227.566 363.033,227.900 363.100 C 228.175 363.155,228.400 363.020,228.400 362.800 C 228.400 362.580,228.670 362.400,229.000 362.400 C 229.373 362.400,229.600 362.022,229.600 361.400 C 229.600 360.850,229.800 360.400,230.043 360.400 C 230.320 360.400,230.389 360.012,230.227 359.367 C 230.021 358.543,230.133 358.290,230.780 358.121 C 231.407 357.957,231.538 357.691,231.353 356.954 C 231.175 356.245,231.278 356.000,231.757 356.000 C 232.133 356.000,232.400 355.668,232.400 355.200 C 232.400 354.756,232.667 354.400,233.000 354.400 C 233.340 354.400,233.600 354.041,233.600 353.571 C 233.600 352.686,234.466 351.600,235.171 351.600 C 235.407 351.600,235.600 351.150,235.600 350.600 C 235.600 350.050,235.780 349.600,236.000 349.600 C 236.220 349.600,236.400 349.066,236.400 348.413 C 236.400 347.485,236.541 347.279,237.045 347.473 C 237.583 347.679,237.645 347.517,237.421 346.494 C 237.226 345.610,237.318 345.174,237.748 344.933 C 238.076 344.750,238.312 344.239,238.272 343.800 C 238.229 343.323,238.443 343.000,238.800 343.000 C 239.767 343.000,240.479 342.079,240.197 341.191 C 239.990 340.538,240.187 340.293,241.206 339.938 C 242.257 339.571,242.441 339.329,242.286 338.517 C 242.160 337.856,242.311 337.457,242.749 337.291 C 243.780 336.901,244.400 336.126,244.400 335.229 C 244.400 334.773,244.593 334.400,244.829 334.400 C 245.435 334.400,246.400 333.361,246.400 332.708 C 246.400 331.470,247.444 330.013,248.500 329.780 C 249.645 329.526,249.910 328.870,249.166 328.126 C 248.703 327.663,250.102 326.400,251.079 326.400 C 251.418 326.400,251.505 326.026,251.348 325.241 C 251.139 324.194,251.239 324.055,252.382 323.804 C 253.533 323.551,253.624 323.421,253.392 322.363 C 253.194 321.462,253.279 321.200,253.768 321.200 C 254.116 321.200,254.400 321.020,254.400 320.800 C 254.400 320.580,254.690 320.400,255.043 320.400 C 255.530 320.400,255.626 320.156,255.436 319.400 C 255.251 318.662,255.344 318.400,255.792 318.400 C 256.127 318.400,256.400 318.220,256.400 318.000 C 256.400 317.780,256.670 317.600,257.000 317.600 C 257.377 317.600,257.600 317.219,257.600 316.574 C 257.600 315.084,258.233 314.129,259.418 313.831 C 260.331 313.602,260.425 313.426,260.195 312.376 C 259.958 311.300,260.058 311.138,261.197 310.741 C 262.267 310.368,262.424 310.151,262.219 309.333 C 262.015 308.519,262.171 308.299,263.210 307.937 C 264.304 307.555,264.414 307.376,264.190 306.353 C 263.990 305.446,264.077 305.200,264.597 305.200 C 265.623 305.200,266.489 304.112,266.197 303.191 C 265.990 302.539,266.186 302.294,267.191 301.943 C 268.307 301.554,268.415 301.381,268.188 300.344 C 267.960 299.306,268.068 299.135,269.197 298.741 C 270.274 298.366,270.425 298.155,270.215 297.317 C 270.020 296.539,270.145 296.287,270.816 296.112 C 271.404 295.958,271.605 295.661,271.470 295.145 C 271.348 294.679,271.486 294.400,271.837 294.400 C 272.147 294.400,272.400 294.220,272.400 294.000 C 272.400 293.780,272.684 293.600,273.032 293.600 C 273.526 293.600,273.606 293.338,273.400 292.400 C 273.203 291.504,273.297 291.138,273.768 290.957 C 274.116 290.824,274.400 290.374,274.400 289.957 C 274.400 289.541,274.593 289.200,274.829 289.200 C 275.664 289.200,276.459 288.017,276.191 287.173 C 275.991 286.543,276.131 286.291,276.775 286.122 C 277.396 285.960,277.557 285.694,277.377 285.128 C 277.187 284.528,277.407 284.252,278.366 283.890 C 279.248 283.558,279.600 283.164,279.600 282.512 C 279.600 282.011,279.780 281.600,280.000 281.600 C 280.220 281.600,280.400 281.041,280.400 280.357 C 280.400 279.402,280.543 279.169,281.017 279.351 C 281.528 279.547,281.589 279.348,281.372 278.194 C 281.158 277.052,281.232 276.800,281.782 276.800 C 282.279 276.800,282.386 276.585,282.191 275.972 C 281.995 275.355,282.129 275.091,282.718 274.937 C 283.259 274.796,283.445 274.492,283.308 273.970 C 283.186 273.502,283.358 273.114,283.755 272.962 C 284.110 272.826,284.400 272.374,284.400 271.957 C 284.400 271.541,284.670 271.200,285.000 271.200 C 285.333 271.200,285.600 270.844,285.600 270.400 C 285.600 269.960,285.794 269.600,286.031 269.600 C 286.290 269.600,286.412 268.924,286.339 267.904 C 286.245 266.610,286.366 266.179,286.849 266.086 C 287.287 266.002,287.424 265.662,287.294 264.982 C 287.158 264.267,287.282 264.000,287.753 264.000 C 288.226 264.000,288.400 263.623,288.400 262.600 C 288.400 261.622,288.581 261.200,289.000 261.200 C 289.419 261.200,289.600 260.778,289.600 259.800 C 289.600 259.030,289.781 258.400,290.002 258.400 C 290.222 258.400,290.357 257.815,290.302 257.100 C 290.219 256.042,290.340 255.812,290.948 255.864 C 291.603 255.919,291.671 255.706,291.494 254.133 C 291.344 252.802,291.440 252.283,291.867 252.119 C 292.269 251.965,292.406 251.400,292.321 250.249 C 292.218 248.839,292.309 248.609,292.955 248.665 C 293.645 248.724,293.689 248.510,293.468 246.147 C 293.268 244.001,293.335 243.523,293.868 243.319 C 294.411 243.110,294.471 242.583,294.263 239.836 C 294.019 236.605,294.315 235.253,295.155 235.772 C 295.475 235.970,295.598 234.210,295.594 229.524 C 295.590 225.343,295.454 223.211,295.216 223.588 C 294.484 224.746,294.206 223.475,294.303 219.412 C 294.384 215.990,294.295 215.245,293.780 215.048 C 293.272 214.853,293.208 214.382,293.425 212.463 C 293.671 210.286,293.628 210.101,292.827 209.891 C 292.038 209.685,291.987 209.491,292.233 207.633 C 292.468 205.864,292.413 205.600,291.806 205.600 C 291.209 205.600,291.147 205.348,291.374 203.833 C 291.599 202.333,291.531 202.045,290.928 201.929 C 290.359 201.820,290.240 201.463,290.335 200.149 C 290.423 198.930,290.287 198.442,289.808 198.258 C 289.306 198.066,289.221 197.695,289.426 196.600 C 289.650 195.407,289.592 195.228,289.045 195.438 C 288.525 195.638,288.400 195.406,288.400 194.243 C 288.400 193.449,288.220 192.800,288.000 192.800 C 287.780 192.800,287.600 192.191,287.600 191.447 C 287.600 190.467,287.396 190.040,286.861 189.900 C 286.287 189.750,286.164 189.429,286.307 188.454 C 286.453 187.459,286.347 187.200,285.795 187.200 C 285.236 187.200,285.147 186.965,285.340 186.000 C 285.542 184.988,285.455 184.800,284.782 184.800 C 284.131 184.800,284.031 184.616,284.236 183.800 C 284.421 183.063,284.327 182.800,283.881 182.800 C 283.406 182.800,283.322 182.456,283.491 181.200 C 283.665 179.899,283.583 179.600,283.053 179.600 C 282.623 179.600,282.400 179.258,282.400 178.600 C 282.400 178.050,282.220 177.600,282.000 177.600 C 281.780 177.600,281.600 177.150,281.600 176.600 C 281.600 175.978,281.373 175.600,281.000 175.600 C 280.627 175.600,280.400 175.222,280.400 174.600 C 280.400 174.050,280.220 173.600,280.000 173.600 C 279.780 173.600,279.600 173.150,279.600 172.600 C 279.600 171.978,279.373 171.600,279.000 171.600 C 278.660 171.600,278.400 171.241,278.400 170.771 C 278.400 169.886,277.534 168.800,276.829 168.800 C 276.593 168.800,276.400 168.350,276.400 167.800 C 276.400 167.148,276.176 166.800,275.757 166.800 C 275.270 166.800,275.174 166.556,275.364 165.800 C 275.549 165.062,275.456 164.800,275.008 164.800 C 274.600 164.800,274.400 164.407,274.400 163.608 C 274.400 162.669,274.187 162.362,273.400 162.164 C 272.682 161.984,272.400 161.643,272.400 160.957 C 272.400 160.352,272.168 160.000,271.768 160.000 C 271.274 160.000,271.194 159.738,271.400 158.800 C 271.606 157.862,271.526 157.600,271.032 157.600 C 270.684 157.600,270.400 157.420,270.400 157.200 C 270.400 156.980,270.127 156.800,269.792 156.800 C 269.344 156.800,269.251 156.538,269.436 155.800 C 269.643 154.973,269.543 154.800,268.853 154.800 C 268.149 154.800,268.056 154.622,268.249 153.653 C 268.452 152.640,268.331 152.454,267.209 152.063 C 266.187 151.707,265.990 151.462,266.197 150.809 C 266.477 149.927,265.636 148.800,264.698 148.800 C 264.306 148.800,264.190 148.447,264.312 147.618 C 264.460 146.613,264.330 146.398,263.443 146.175 C 262.620 145.968,262.400 145.669,262.400 144.757 C 262.400 144.120,262.220 143.600,262.000 143.600 C 261.780 143.600,261.600 143.336,261.600 143.013 C 261.600 142.655,261.365 142.515,261.000 142.655 C 260.549 142.829,260.400 142.588,260.400 141.682 C 260.400 140.711,260.174 140.399,259.229 140.070 C 258.321 139.754,258.107 139.479,258.272 138.845 C 258.510 137.937,257.602 136.800,256.639 136.800 C 256.165 136.800,256.076 136.519,256.260 135.600 C 256.480 134.499,256.394 134.379,255.212 134.142 C 254.046 133.909,253.945 133.776,254.152 132.742 C 254.278 132.111,254.206 131.600,253.990 131.600 C 253.776 131.600,253.600 131.344,253.600 131.032 C 253.600 130.719,253.049 130.343,252.376 130.195 C 251.296 129.957,251.180 129.800,251.389 128.848 C 251.599 127.894,251.463 127.711,250.213 127.259 C 249.436 126.978,248.800 126.595,248.800 126.407 C 248.800 126.219,248.679 125.749,248.531 125.363 C 248.323 124.822,248.414 124.720,248.931 124.918 C 249.299 125.059,249.600 125.001,249.600 124.787 C 249.600 124.574,249.396 124.400,249.147 124.400 C 248.898 124.400,248.403 124.085,248.047 123.700 C 247.691 123.315,247.130 123.000,246.800 123.000 C 246.387 123.000,246.225 122.642,246.282 121.853 C 246.363 120.712,245.646 119.600,244.829 119.600 C 244.593 119.600,244.400 119.420,244.400 119.200 C 244.400 118.980,244.116 118.800,243.768 118.800 C 243.274 118.800,243.194 118.538,243.400 117.600 C 243.606 116.662,243.526 116.400,243.032 116.400 C 242.684 116.400,242.400 116.238,242.400 116.039 C 242.400 115.841,241.860 115.490,241.200 115.260 C 240.540 115.030,240.000 114.562,240.000 114.221 C 240.000 113.879,239.845 113.600,239.655 113.600 C 239.466 113.600,239.397 113.150,239.502 112.600 C 239.642 111.867,239.521 111.600,239.047 111.600 C 238.691 111.600,238.400 111.420,238.400 111.200 C 238.400 110.980,238.207 110.800,237.971 110.800 C 237.170 110.800,236.212 109.473,236.335 108.535 C 236.402 108.021,236.264 107.600,236.029 107.600 C 235.793 107.600,235.600 107.344,235.600 107.032 C 235.600 106.719,235.059 106.345,234.397 106.199 C 233.113 105.917,232.400 104.988,232.400 103.598 C 232.400 102.595,231.713 101.817,230.484 101.427 C 229.135 100.999,228.400 100.062,228.400 98.771 C 228.400 98.127,228.220 97.600,228.000 97.600 C 227.780 97.600,227.600 97.330,227.600 97.000 C 227.600 96.670,227.370 96.400,227.088 96.400 C 226.807 96.400,226.317 96.040,226.000 95.600 C 225.683 95.160,225.105 94.800,224.716 94.800 C 224.201 94.800,223.940 94.367,223.754 93.200 C 223.599 92.235,223.280 91.600,222.949 91.600 C 222.647 91.600,222.400 91.407,222.400 91.171 C 222.400 90.644,221.393 89.600,220.883 89.600 C 220.135 89.600,218.400 87.466,218.400 86.545 C 218.400 86.025,218.220 85.600,218.000 85.600 C 217.780 85.600,217.600 85.330,217.600 85.000 C 217.600 84.670,217.370 84.400,217.088 84.400 C 216.807 84.400,216.317 84.040,216.000 83.600 C 215.683 83.160,215.180 82.800,214.883 82.800 C 214.238 82.800,213.200 81.831,213.200 81.229 C 213.200 80.993,213.020 80.800,212.800 80.800 C 212.580 80.800,212.400 80.337,212.400 79.771 C 212.400 78.717,211.592 77.600,210.829 77.600 C 210.593 77.600,210.400 77.407,210.400 77.171 C 210.400 76.544,209.569 75.835,208.153 75.257 C 207.468 74.977,206.672 74.309,206.386 73.774 C 206.099 73.238,205.701 72.800,205.501 72.800 C 205.300 72.800,205.255 72.260,205.400 71.600 C 205.574 70.809,205.507 70.400,205.203 70.400 C 204.623 70.400,203.600 69.397,203.600 68.829 C 203.600 68.593,203.407 68.400,203.171 68.400 C 202.638 68.400,201.600 67.390,201.600 66.872 C 201.600 66.660,201.190 66.384,200.688 66.258 C 199.603 65.985,197.200 63.924,197.200 63.264 C 197.200 63.009,197.020 62.800,196.800 62.800 C 196.580 62.800,196.400 62.337,196.400 61.771 C 196.400 60.717,195.592 59.600,194.829 59.600 C 194.593 59.600,194.400 59.407,194.400 59.171 C 194.400 58.618,193.382 57.600,192.829 57.600 C 192.593 57.600,192.400 57.420,192.400 57.200 C 192.400 56.980,192.160 56.800,191.866 56.800 C 190.828 56.800,189.167 54.472,189.437 53.396 C 189.597 52.756,189.518 52.400,189.215 52.400 C 188.626 52.400,187.600 51.402,187.600 50.829 C 187.600 50.593,187.407 50.400,187.171 50.400 C 186.638 50.400,185.600 49.390,185.600 48.872 C 185.600 48.660,185.190 48.384,184.688 48.258 C 182.943 47.820,179.123 43.542,179.996 43.003 C 180.460 42.716,179.531 41.600,178.829 41.600 C 178.593 41.600,178.400 41.407,178.400 41.171 C 178.400 40.618,177.382 39.600,176.829 39.600 C 176.593 39.600,176.400 39.327,176.400 38.992 C 176.400 38.544,176.138 38.451,175.400 38.636 C 174.837 38.777,174.400 38.713,174.400 38.490 C 174.400 38.272,174.039 37.999,173.598 37.884 C 173.136 37.763,172.884 37.447,173.002 37.137 C 173.208 36.597,169.128 36.205,168.618 36.715 M203.271 122.522 C 203.562 122.810,204.119 123.165,204.508 123.313 C 204.898 123.460,205.325 124.125,205.458 124.791 C 205.591 125.456,205.956 126.000,206.268 126.000 C 206.696 126.000,206.774 126.331,206.584 127.344 C 206.371 128.483,206.459 128.722,207.163 128.906 C 207.905 129.100,207.967 129.326,207.741 130.981 C 207.539 132.451,207.602 132.813,208.043 132.719 C 208.491 132.623,208.572 133.209,208.456 135.704 C 208.330 138.428,208.391 138.778,208.956 138.562 C 209.310 138.426,209.609 138.469,209.621 138.657 C 210.050 145.837,209.626 164.620,209.033 164.736 C 208.426 164.854,208.363 165.219,208.549 167.536 C 208.881 171.680,208.876 171.756,208.178 172.266 C 207.657 172.646,207.549 173.278,207.660 175.274 C 207.785 177.536,207.722 177.793,207.057 177.737 C 206.379 177.680,206.339 177.896,206.589 180.237 C 206.831 182.494,206.782 182.800,206.181 182.800 C 205.606 182.800,205.539 183.058,205.759 184.435 C 205.985 185.848,205.913 186.098,205.227 186.277 C 204.597 186.442,204.451 186.785,204.517 187.942 C 204.577 188.995,204.448 189.368,204.053 189.284 C 203.633 189.195,203.567 189.499,203.771 190.584 C 204.007 191.842,203.942 192.000,203.191 192.000 C 202.528 192.000,202.401 192.172,202.600 192.800 C 202.780 193.368,202.672 193.600,202.227 193.600 C 201.598 193.600,201.447 193.997,201.579 195.300 C 201.661 196.101,200.968 196.252,200.665 195.500 C 200.539 195.188,200.451 195.251,200.432 195.667 C 200.414 196.033,200.175 196.424,199.900 196.535 C 199.601 196.656,199.682 196.750,200.100 196.768 C 200.823 196.801,201.112 197.600,200.400 197.600 C 200.180 197.600,200.000 197.842,200.000 198.138 C 200.000 199.139,198.569 200.058,197.447 199.776 C 196.789 199.611,196.400 199.678,196.400 199.957 C 196.400 200.222,195.597 200.400,194.400 200.400 C 193.249 200.400,192.400 200.219,192.400 199.973 C 192.400 199.722,192.056 199.655,191.565 199.811 C 190.462 200.161,189.048 198.710,189.403 197.591 C 189.594 196.987,189.469 196.800,188.873 196.800 C 188.161 196.800,188.100 196.543,188.189 193.900 C 188.312 190.259,188.277 190.400,189.045 190.400 C 189.584 190.400,189.646 190.101,189.421 188.600 C 189.199 187.120,189.262 186.800,189.775 186.800 C 190.249 186.800,190.400 186.365,190.400 185.000 C 190.400 183.621,190.549 183.200,191.037 183.200 C 191.556 183.200,191.648 182.811,191.537 181.100 C 191.430 179.464,191.523 179.026,191.958 179.119 C 192.400 179.214,192.473 178.797,192.310 177.119 C 192.071 174.652,192.233 174.000,193.085 174.000 C 193.603 174.000,193.660 173.617,193.435 171.629 C 193.210 169.637,193.275 169.198,193.845 168.879 C 194.406 168.565,194.482 168.106,194.285 166.206 C 194.070 164.119,194.123 163.893,194.879 163.695 C 195.657 163.492,195.694 163.283,195.467 160.339 C 195.257 157.618,195.311 157.200,195.870 157.200 C 196.425 157.200,196.484 156.790,196.294 154.266 C 196.068 151.287,196.351 150.075,197.155 150.572 C 197.465 150.764,197.600 150.000,197.600 148.047 C 197.600 146.507,197.455 145.158,197.277 145.048 C 196.688 144.684,197.240 142.000,197.904 142.000 C 198.439 142.000,198.490 141.295,198.294 136.613 C 198.044 130.645,198.189 129.433,199.111 129.787 C 199.629 129.986,199.682 129.640,199.474 127.410 C 199.274 125.275,199.337 124.800,199.815 124.800 C 200.137 124.800,200.400 124.440,200.400 124.000 C 200.400 123.560,200.651 123.200,200.957 123.200 C 201.264 123.200,201.618 122.930,201.745 122.600 C 202.028 121.861,202.575 121.834,203.271 122.522 " stroke="none" fill="#54ac44" fill-rule="evenodd"></path></g></svg>